<svg xmlns="http://www.w3.org/2000/svg" xmlns:xlink="http://www.w3.org/1999/xlink" viewBox="0 0 274 274" enable-background="new 0 0 274 274"><style type="text/css">.st0{fill:#FFFFFF;} .st1{clip-path:url(#SVGID_2_);fill:#956BD3;} .st2{fill:#4C1EB9;} .st3{fill:#B2B2D1;} .st4{fill:#3514A0;} .st5{fill:#6A35C0;} .st6{clip-path:url(#SVGID_4_);fill:#B2B2D1;} .st7{clip-path:url(#SVGID_6_);fill:#933CC7;}</style><path class="st0" d="M95.7 23.9h133v233h-133zM0 93.6h101.5v113.4h-101.5z"/><defs><path id="SVGID_1_" d="M96.1 274h-91.1c-2.8 0-5-2.2-5-5v-83.6c0-2.8 2.2-5 5-5h91.1c2.8 0 5 2.2 5 5v83.6c0 2.8-2.2 5-5 5z"/></defs><clipPath id="SVGID_2_"><use xlink:href="#SVGID_1_" overflow="visible"/></clipPath><path class="st1" d="M221.1 274h-168.2c-29.1 0-52.9-23.8-52.9-52.9v-168.2c0-29.1 23.8-52.9 52.9-52.9h168.2c29.1 0 52.9 23.8 52.9 52.9v168.2c0 29.1-23.8 52.9-52.9 52.9z"/><path class="st2" d="M274 221.1v-121.6l-226.4 174.2c1.8.2 3.5.3 5.3.3h168.2c29.1 0 52.9-23.8 52.9-52.9z"/><path class="st3" d="M221.1 4h-141.5v24.9l143.1 110.1 51.3-39.5v-42.6c0-29.1-23.8-52.9-52.9-52.9z"/><path class="st4" d="M274 178.4v-78.9l-51.2 39.5z"/><path class="st5" d="M221.1-1h-141.5v24.9l194.4 149.5v-121.5c0-29.1-23.8-52.9-52.9-52.9z"/><defs><path id="SVGID_3_" d="M96.1 96.6h-91.1c-2.8 0-5-2.2-5-5v-31.6c0-2.8 29.2-38.8 32-38.8l64.1-18.2c2.8 0 5 2.2 5 5v83.6c0 2.7-2.2 5-5 5z"/></defs><use xlink:href="#SVGID_3_" overflow="visible" fill="#B2B2D1"/><clipPath id="SVGID_4_"><use xlink:href="#SVGID_3_" overflow="visible"/></clipPath><path class="st6" d="M221.1 277h-168.2c-29.1 0-52.9-23.8-52.9-52.9v-168.2c0-29.1 23.8-52.9 52.9-52.9h168.2c29.1 0 52.9 23.8 52.9 52.9v168.2c0 29.1-23.8 52.9-52.9 52.9z"/><defs><path id="SVGID_5_" d="M96.1 92.6h-91.1c-2.8 0-5-2.2-5-5v-83.6c0-2.8 2.2-5 5-5h96c.1 0 .2.1.2.2v88.4c-.1 2.7-2.3 5-5.1 5z"/></defs><clipPath id="SVGID_6_"><use xlink:href="#SVGID_5_" overflow="visible"/></clipPath><path class="st7" d="M221.1 273h-168.2c-29.1 0-52.9-23.8-52.9-52.9v-168.2c0-29.1 23.8-52.9 52.9-52.9h168.2c29.1 0 52.9 23.8 52.9 52.9v168.2c0 29.1-23.8 52.9-52.9 52.9z"/></svg>