<svg xmlns="http://www.w3.org/2000/svg" xmlns:xlink="http://www.w3.org/1999/xlink" width="274" height="274" viewBox="-962 283.9 274 274" enable-background="new -962 283.9 274 274"><style type="text/css">.st0{fill:#FFFFFF;} .st1{clip-path:url(#SVGID_2_);fill:#956BD3;} .st2{fill:#4C1EB9;} .st3{fill:#B2B2D1;} .st4{fill:#3514A0;} .st5{fill:#6A35C0;} .st6{clip-path:url(#SVGID_5_);fill:#B2B2D1;} .st7{clip-path:url(#SVGID_7_);fill:#933CC7;}</style><path class="st0" d="M-866.3 307.8h133v233h-133v-233zm-95.7 69.7h101.5v113.4h-101.5v-113.4z"/><defs><path id="SVGID_1_" d="M-865.9 557.9h-91.1c-2.8 0-5-2.2-5-5v-83.6c0-2.8 2.2-5 5-5h91.1c2.8 0 5 2.2 5 5v83.6c0 2.8-2.2 5-5 5z"/></defs><clipPath id="SVGID_2_"><use xlink:href="#SVGID_1_" overflow="visible"/></clipPath><path class="st1" d="M-740.9 557.9h-168.2c-29.1 0-52.9-23.8-52.9-52.9v-168.2c0-29.1 23.8-52.9 52.9-52.9h168.2c29.1 0 52.9 23.8 52.9 52.9v168.2c0 29.1-23.8 52.9-52.9 52.9z"/><path class="st2" d="M-688 505v-121.6l-226.4 174.2c1.8.2 3.5.3 5.3.3h168.2c29.1 0 52.9-23.8 52.9-52.9z"/><path class="st3" d="M-740.9 287.9h-141.5v24.9l143.1 110.1 51.3-39.5v-42.6c0-29.1-23.8-52.9-52.9-52.9z"/><path class="st4" d="M-688 462.3v-78.9l-51.2 39.5 51.2 39.4z"/><path class="st5" d="M-740.9 282.9h-141.5v24.9l194.4 149.5v-121.5c0-29.1-23.8-52.9-52.9-52.9z"/><path id="SVGID_3_" class="st3" d="M-865.9 380.5h-91.1c-2.8 0-5-2.2-5-5v-31.6c0-2.8 29.2-38.8 32-38.8l64.1-18.2c2.8 0 5 2.2 5 5v83.6c0 2.7-2.2 5-5 5z"/><defs><path id="SVGID_4_" d="M-865.9 380.5h-91.1c-2.8 0-5-2.2-5-5v-31.6c0-2.8 29.2-38.8 32-38.8l64.1-18.2c2.8 0 5 2.2 5 5v83.6c0 2.7-2.2 5-5 5z"/></defs><clipPath id="SVGID_5_"><use xlink:href="#SVGID_4_" overflow="visible"/></clipPath><path class="st6" d="M-740.9 560.9h-168.2c-29.1 0-52.9-23.8-52.9-52.9v-168.2c0-29.1 23.8-52.9 52.9-52.9h168.2c29.1 0 52.9 23.8 52.9 52.9v168.2c0 29.1-23.8 52.9-52.9 52.9z"/><defs><path id="SVGID_6_" d="M-865.9 376.5h-91.1c-2.8 0-5-2.2-5-5v-83.6c0-2.8 2.2-5 5-5h96c.1 0 .2.1.2.2v88.4c-.1 2.7-2.3 5-5.1 5z"/></defs><clipPath id="SVGID_7_"><use xlink:href="#SVGID_6_" overflow="visible"/></clipPath><path class="st7" d="M-740.9 556.9h-168.2c-29.1 0-52.9-23.8-52.9-52.9v-168.2c0-29.1 23.8-52.9 52.9-52.9h168.2c29.1 0 52.9 23.8 52.9 52.9v168.2c0 29.1-23.8 52.9-52.9 52.9z"/></svg>